<svg width="312" height="84" viewBox="0 0 312 84" fill="none" xmlns="http://www.w3.org/2000/svg">
<g id="button-call">
<rect x="1.5" y="1.5" width="308.73" height="80.9924" rx="28.5" fill="url(#paint0_linear_37_910)"/>
<rect x="1.5" y="1.5" width="308.73" height="80.9924" rx="28.5" stroke="#56275A" stroke-width="3"/>
<g id="PLay">
<path d="M100.85 26.2846H103.992V45.1385H100.85V48.2808H97.7078V51.4232H81.9962V60.8501H78.8539V63.9924H63.1423V60.8501H60V23.1423H63.1423V29.4269H66.2846V26.2846H69.4269V23.1423H63.1423V20H97.7078V23.1423H100.85V26.2846ZM81.9962 29.4269V41.9962H88.2808V29.4269H81.9962Z" fill="#FDE4FF"/>
<path d="M147.997 51.4232V54.5655H151.139V60.8501H147.997V63.9924H113.432V60.8501H110.289V23.1423H113.432V29.4269H116.574V26.2846H119.716V23.1423H113.432V20H129.143V23.1423H132.286V51.4232H147.997Z" fill="#FDE4FF"/>
<path d="M198.299 26.2846V29.4269H201.441V60.8501H198.299V63.9924H192.014V60.8501H188.872V41.9962H179.445V60.8501H176.302V63.9924H160.591V60.8501H157.449V26.2846H160.591V29.4269H163.733V26.2846H166.876V23.1423H163.733V20H192.014V23.1423H195.156V26.2846H198.299ZM179.445 29.4269V35.7116H188.872V29.4269H179.445Z" fill="#FDE4FF"/>
<path d="M245.446 35.7116V38.8539H242.303V41.9962H239.161V60.8501H236.019V63.9924H223.449V60.8501H220.307V41.9962H217.165V38.8539H214.023V35.7116H210.88V32.5693H207.738V23.1423H210.88V29.4269H214.023V26.2846H217.165V23.1423H210.88V20H223.449V23.1423H226.592V26.2846H232.876V23.1423H236.019V20H248.588V23.1423H251.73V32.5693H248.588V35.7116H245.446Z" fill="#FDE4FF"/>
</g>
<path id="Vector 2" d="M17.7059 23.4118H11V29H23.2941V22.2941H24.4118H30V10H24.4118V16.7059H17.7059V23.4118Z" fill="white" stroke="white" stroke-width="1.11765"/>
</g>
<defs>
<linearGradient id="paint0_linear_37_910" x1="155.377" y1="0" x2="155.377" y2="83.9924" gradientUnits="userSpaceOnUse">
<stop stop-color="#B953CD"/>
<stop offset="0.558303" stop-color="#AE02D9"/>
<stop offset="1" stop-color="#6F00B0"/>
</linearGradient>
</defs>
</svg>
