<svg width="43" height="42" viewBox="0 0 43 42" fill="none" xmlns="http://www.w3.org/2000/svg">
<g id="css" clip-path="url(#clip0_37_936)">
<g id="Group">
<path id="Vector" d="M0.5 0L4.00017 38.5003L21.5 42L38.9998 38.5003L42.5 0H0.5ZM35.7517 35.5808L21.5 38.4295L7.2483 35.5808L4.33096 3.49966H38.666L35.7517 35.5808Z" fill="#2F3CFD"/>
<path id="Vector_2" d="M34.6685 7H8L8.31767 10.5002H26.5781L9.22852 19.2498L9.43165 22.7505H29.7229L29.0872 29.7435L21.335 31.2922L13.5813 29.7435L13.2652 26.2502H9.74983L10.3326 32.662L21.335 34.8602L32.3374 32.662L33.5559 19.2498H17.0011L34.3508 10.5002L34.6685 7Z" fill="#2F3CFD"/>
</g>
</g>
<defs>
<clipPath id="clip0_37_936">
<rect width="42" height="42" fill="white" transform="translate(0.5)"/>
</clipPath>
</defs>
</svg>
