<?xml version="1.0" encoding="UTF-8"?>
<svg xmlns="http://www.w3.org/2000/svg" xmlns:xlink="http://www.w3.org/1999/xlink" width="43px" height="43px" viewBox="0 0 43 43" version="1.1">
<g id="surface1">
<path style=" stroke:none;fill-rule:nonzero;fill:rgb(100%,100%,100%);fill-opacity:1;" d="M 0 21.402344 L 0 36.828125 L 42.800781 36.828125 L 42.800781 5.972656 L 0 5.972656 Z M 40.808594 9.15625 C 40.710938 10.253906 24.1875 23.789062 21.796875 24.683594 C 20.605469 25.183594 1.992188 10.253906 1.992188 8.957031 C 1.992188 8.359375 9.554688 7.964844 21.402344 7.964844 C 36.332031 7.964844 40.808594 8.261719 40.808594 9.15625 Z M 11.746094 19.90625 C 16.523438 23.691406 20.804688 26.875 21.402344 26.875 C 21.898438 26.875 26.378906 23.691406 31.253906 19.90625 C 36.132812 16.027344 40.3125 12.941406 40.511719 12.941406 C 40.609375 12.941406 40.808594 17.816406 40.808594 23.890625 L 40.808594 34.839844 L 1.992188 34.839844 L 1.992188 23.890625 C 1.992188 17.816406 2.191406 12.941406 2.488281 12.941406 C 2.785156 12.941406 6.96875 16.027344 11.746094 19.90625 Z M 11.746094 19.90625 "/>
</g>
</svg>
