<svg width="43" height="42" viewBox="0 0 43 42" fill="none" xmlns="http://www.w3.org/2000/svg">
<g id="java-script 1" clip-path="url(#clip0_37_918)">
<g id="Group">
<path id="Vector" d="M0.5 0L4.00017 38.4998L21.5 42L38.9998 38.4998L42.5 0H0.5ZM35.7517 35.5808L21.5 38.43L7.2483 35.5808L4.33096 3.50017H38.666L35.7517 35.5808Z" fill="#444DFA"/>
<path id="Vector_2" d="M16.2502 7V30.2422L13.7465 29.743L13.4304 26.2502H9.91504L10.4978 32.6626L19.7504 34.5095V7H16.2502ZM34.516 10.5002L34.8337 7H23.25V22.75H29.8881L29.2524 29.743L23.25 30.9415V34.5095L32.5027 32.6626L33.7211 19.2503H26.7502V10.5002H34.516Z" fill="#444DFA"/>
</g>
</g>
<defs>
<clipPath id="clip0_37_918">
<rect width="42" height="42" fill="white" transform="translate(0.5)"/>
</clipPath>
</defs>
</svg>
