<svg width="43" height="42" viewBox="0 0 43 42" fill="none" xmlns="http://www.w3.org/2000/svg">
<g id="physics" clip-path="url(#clip0_37_888)">
<g id="Group">
<path id="Vector" d="M39.2677 9.68941C37.7029 7.23878 34.3381 6.22083 29.8043 6.80521C29.6441 6.82387 29.4744 6.85233 29.3142 6.871C29.2483 6.72047 29.1824 6.56947 29.1069 6.41895C27.1559 2.28087 24.4884 0 21.5854 0C18.6823 0 16.0055 2.28097 14.0637 6.41895C13.9977 6.56947 13.9223 6.72047 13.8564 6.871C13.6867 6.8431 13.5265 6.82387 13.3663 6.80511C8.82333 6.21131 5.46776 7.23887 3.90294 9.6895C2.3385 12.1401 2.81901 15.6179 5.25079 19.4824C5.57811 20.0028 5.92723 20.5091 6.29721 21.0001C5.92019 21.5089 5.57154 22.0085 5.25088 22.5173C2.81901 26.3818 2.3385 29.8692 3.90294 32.3107C5.17539 34.3088 7.64515 35.3551 10.9721 35.3551C11.7695 35.3508 12.5659 35.2973 13.3567 35.1946C13.5169 35.1758 13.6866 35.1475 13.8468 35.1287C13.9131 35.2797 13.979 35.4303 14.0545 35.5812C16.0056 39.7188 18.673 42.0002 21.5757 42.0002C24.4788 42.0002 27.1559 39.7188 29.0973 35.5812C29.1633 35.4302 29.2387 35.2796 29.3047 35.1288C29.4743 35.1571 29.6345 35.1759 29.7951 35.1946C30.5853 35.3017 31.3819 35.3553 32.1794 35.3552C35.5066 35.3552 37.9761 34.3088 39.2485 32.3107C40.8133 29.8601 40.3325 26.3818 37.901 22.5173C37.5736 21.9971 37.2245 21.491 36.8546 21.0001C37.2316 20.4908 37.5803 19.9916 37.901 19.4824C40.3608 15.6088 40.8417 12.1304 39.2677 9.68941ZM15.7699 7.22012C17.3626 3.82694 19.4834 1.8851 21.5853 1.8851C23.6871 1.8851 25.808 3.82694 27.4008 7.22012C27.4019 7.22721 27.4052 7.23378 27.4103 7.23887C25.4083 7.72043 23.4551 8.3861 21.5757 9.22737C19.6981 8.38186 17.7446 7.71606 15.7415 7.23887C15.7603 7.23887 15.7603 7.22926 15.7698 7.22002L15.7699 7.22012ZM30.0778 21.0001C30.0782 22.5082 29.9965 24.0155 29.8326 25.5147C28.6578 26.4627 27.4305 27.3439 26.1566 28.1539C24.6865 29.098 23.1563 29.945 21.5757 30.6896C19.9982 29.9392 18.4685 29.0924 16.9951 28.1539C15.7227 27.3417 14.4956 26.4606 13.3192 25.5147C12.9923 22.5137 12.9923 19.4861 13.3192 16.4851C15.8597 14.4435 18.6309 12.7068 21.5758 11.3106C23.1535 12.0607 24.6834 12.9074 26.1567 13.8459C27.4291 14.6581 28.6563 15.5391 29.8327 16.485C29.9965 17.9845 30.0783 19.4917 30.0779 21.0001H30.0778ZM31.8779 18.2571C32.8009 19.1168 33.6698 20.0329 34.4794 21.0001C33.6697 21.9671 32.8008 22.883 31.8779 23.7426C31.9346 22.8381 31.9629 21.9239 31.9629 21.0001C31.9629 20.0763 31.9346 19.1621 31.8779 18.2571ZM29.446 28.1918C29.1485 29.8238 28.7166 31.4284 28.1547 32.9892C26.6909 32.6586 25.2542 32.2175 23.857 31.6697C24.9912 31.0734 26.101 30.432 27.1839 29.747C27.9571 29.2474 28.7111 28.729 29.446 28.1918ZM19.3136 31.6697C17.9189 32.2246 16.4816 32.6659 15.0158 32.9892C14.454 31.4284 14.0221 29.8238 13.7246 28.1918C14.4504 28.729 15.2044 29.2474 15.9867 29.7374C17.0895 30.4443 18.2017 31.0853 19.3136 31.6697ZM11.2926 23.7426C10.3698 22.8829 9.50095 21.967 8.69109 21.0001C9.50085 20.033 10.3697 19.1169 11.2926 18.2571C11.236 19.1621 11.2076 20.0763 11.2076 21.0001C11.2076 21.9239 11.2359 22.8381 11.2926 23.7426ZM13.7246 13.8083C14.0221 12.1764 14.454 10.5718 15.0159 9.01096C16.4799 9.34119 17.9166 9.78232 19.3136 10.3305C18.1795 10.9268 17.0696 11.5682 15.9867 12.2531C15.2179 12.7497 14.4636 13.2684 13.7246 13.8083ZM27.1748 12.2531C26.0812 11.5558 24.9689 10.9053 23.8474 10.3305C25.2422 9.77555 26.6796 9.33426 28.1456 9.01096C28.7072 10.5719 29.1391 12.1764 29.4369 13.8083C28.7111 13.2711 27.9571 12.7527 27.1748 12.2531ZM6.84398 18.474C4.84549 15.3068 4.35546 12.4699 5.48652 10.6979C6.39146 9.28411 8.35206 8.52046 11.0004 8.52046C11.7095 8.52347 12.4179 8.57098 13.1212 8.66184H13.1399C12.3775 10.8788 11.8469 13.1689 11.5567 15.4953C10.1042 16.7071 8.75194 18.0342 7.513 19.4636C7.27736 19.1434 7.05125 18.8135 6.84398 18.474ZM13.1119 33.3287C12.4087 33.42 11.7004 33.4672 10.9912 33.4701C8.34245 33.4701 6.38194 32.7161 5.47728 31.2926C4.34622 29.5206 4.83635 26.6838 6.83437 23.5166C7.04173 23.1867 7.26813 22.8472 7.50376 22.5173C8.74239 23.9469 10.0946 25.274 11.5471 26.4856C11.8375 28.812 12.3682 31.1021 13.1307 33.3191C13.1307 33.3287 13.1212 33.3287 13.1119 33.3287ZM27.4008 34.7801C25.808 38.1732 23.6872 40.1151 21.5853 40.1151C19.4833 40.1151 17.3626 38.1732 15.7698 34.7801C15.7687 34.7729 15.7654 34.7663 15.7603 34.7612C17.7624 34.2797 19.7155 33.614 21.5949 32.7724C23.4724 33.6182 25.4259 34.2841 27.4291 34.7612C27.4103 34.7612 27.4103 34.7705 27.4008 34.7801ZM36.3266 23.5262C38.3251 26.6929 38.8152 29.5302 37.6841 31.3023C36.553 33.0739 33.7725 33.8188 30.0587 33.3287H30.0398C30.8024 31.1117 31.3331 28.8217 31.6234 26.4952C33.0759 25.2835 34.4282 23.9564 35.667 22.5269C35.8934 22.8568 36.1194 23.1867 36.3267 23.5262H36.3266ZM31.6139 15.5049C31.3238 13.1785 30.7932 10.8884 30.0307 8.67145H30.0495C33.763 8.19057 36.5435 8.92594 37.6746 10.6979C38.8056 12.4699 38.3155 15.3068 36.3174 18.474C36.1101 18.8039 35.8837 19.1434 35.6481 19.4733C34.4151 18.0415 33.0658 16.7142 31.6139 15.5049Z" fill="#2F3CFD" fill-opacity="0.9"/>
<path id="Vector_2" d="M21.5851 17.2677C19.5238 17.2677 17.8525 18.9388 17.8525 21.0002C17.8525 23.0617 19.5237 24.7325 21.5851 24.7325C23.6467 24.7325 25.3178 23.0617 25.3178 21.0003C25.3163 18.9392 23.6459 17.2692 21.5851 17.2677ZM21.5851 22.8474C20.5649 22.8474 19.7376 22.0205 19.7376 21.0003C19.7376 19.98 20.5649 19.1527 21.5851 19.1527C22.6053 19.1527 23.4327 19.98 23.4327 21.0003C23.4308 22.0197 22.6047 22.846 21.5851 22.8474Z" fill="#2F3CFD" fill-opacity="0.9"/>
</g>
</g>
<defs>
<clipPath id="clip0_37_888">
<rect width="42" height="42" fill="white" transform="translate(0.5)"/>
</clipPath>
</defs>
</svg>
