<svg width="43" height="42" viewBox="0 0 43 42" fill="none" xmlns="http://www.w3.org/2000/svg">
<g id="python">
<g id="Group">
<path id="Vector" d="M19.5312 10.5C20.2561 10.5 20.8438 9.91237 20.8438 9.1875C20.8438 8.46263 20.2561 7.875 19.5312 7.875C18.8064 7.875 18.2188 8.46263 18.2188 9.1875C18.2188 9.91237 18.8064 10.5 19.5312 10.5Z" fill="#2F3CFD"/>
<path id="Vector_2" d="M34.625 13.7812H30.6875V7.875C30.6875 6.06572 29.2155 4.59375 27.4062 4.59375H18.2188C16.4095 4.59375 14.9375 6.06572 14.9375 7.875V12.4688H8.375C6.56572 12.4688 5.09375 13.9407 5.09375 15.75V24.9375C5.09375 26.7468 6.56572 28.2188 8.375 28.2188H12.3125V34.125C12.3125 35.9343 13.7845 37.4062 15.5938 37.4062H24.7812C26.5905 37.4062 28.0625 35.9343 28.0625 34.125V29.5312H34.625C36.4343 29.5312 37.9062 28.0593 37.9062 26.25V17.0625C37.9062 15.2532 36.4343 13.7812 34.625 13.7812ZM6.40625 24.9375V15.75C6.40625 14.6646 7.28956 13.7812 8.375 13.7812H22.8125C23.6807 13.7812 23.6814 12.4688 22.8125 12.4688H16.25V7.875C16.25 6.78956 17.1333 5.90625 18.2188 5.90625H27.4062C28.4917 5.90625 29.375 6.78956 29.375 7.875V18.375C29.375 19.4604 28.4917 20.3438 27.4062 20.3438H15.5938C13.7845 20.3438 12.3125 21.8157 12.3125 23.625V26.9062H8.375C7.28956 26.9062 6.40625 26.0229 6.40625 24.9375ZM36.5938 26.25C36.5938 27.3354 35.7104 28.2188 34.625 28.2188H20.1875C19.3193 28.2188 19.3186 29.5312 20.1875 29.5312H26.75V34.125C26.75 35.2104 25.8667 36.0938 24.7812 36.0938H15.5938C14.5083 36.0938 13.625 35.2104 13.625 34.125V23.625C13.625 22.5396 14.5083 21.6562 15.5938 21.6562H27.4062C29.2155 21.6562 30.6875 20.1843 30.6875 18.375V15.0938H34.625C35.7104 15.0938 36.5938 15.9771 36.5938 17.0625V26.25Z" fill="#2F3CFD"/>
<path id="Vector_3" d="M23.4688 34.125C24.1936 34.125 24.7812 33.5374 24.7812 32.8125C24.7812 32.0876 24.1936 31.5 23.4688 31.5C22.7439 31.5 22.1562 32.0876 22.1562 32.8125C22.1562 33.5374 22.7439 34.125 23.4688 34.125Z" fill="#2F3CFD"/>
</g>
</g>
</svg>
