<svg width="43" height="43" viewBox="0 0 43 43" fill="none" xmlns="http://www.w3.org/2000/svg">
<g id="resume">
<g id="Group">
<path id="Vector" d="M36.3729 12.5476L26.4102 2.58484C26.327 2.49879 26.2271 2.43074 26.1165 2.38492C26.0059 2.3391 25.8872 2.31649 25.7675 2.31848H9.49476C8.53034 2.31848 7.60542 2.7016 6.92347 3.38355C6.24151 4.0655 5.8584 4.99042 5.8584 5.95484V37.0458C5.8584 38.0102 6.24151 38.9351 6.92347 39.6171C7.60542 40.299 8.53034 40.6821 9.49476 40.6821H33.0029C33.9674 40.6821 34.8923 40.299 35.5742 39.6171C36.2562 38.9351 36.6393 38.0102 36.6393 37.0458V13.1903C36.6386 12.9494 36.5429 12.7184 36.3729 12.5476ZM33.5357 12.2812H28.0402C27.6786 12.2812 27.3317 12.1375 27.076 11.8818C26.8202 11.6261 26.6766 11.2792 26.6766 10.9176V5.42212L33.5357 12.2812ZM33.0029 38.8639H9.49749C9.01528 38.8639 8.55282 38.6724 8.21184 38.3314C7.87087 37.9904 7.67931 37.528 7.67931 37.0458V5.95484C7.67931 5.47263 7.87087 5.01017 8.21184 4.6692C8.55282 4.32822 9.01528 4.13666 9.49749 4.13666H24.8611V10.9176C24.8611 11.7614 25.1964 12.5707 25.7931 13.1675C26.3898 13.7642 27.1991 14.0994 28.0429 14.0994H34.8239V37.0458C34.8239 37.2848 34.7767 37.5214 34.6852 37.7422C34.5936 37.9629 34.4595 38.1635 34.2904 38.3324C34.1212 38.5012 33.9205 38.6351 33.6996 38.7263C33.4787 38.8175 33.2419 38.8643 33.0029 38.8639Z" fill="white"/>
<path id="Vector_2" d="M17.9936 15.8636C18.7218 15.8636 19.4337 15.6477 20.0391 15.2431C20.6446 14.8386 21.1165 14.2636 21.3952 13.5908C21.6739 12.918 21.7468 12.1777 21.6047 11.4635C21.4626 10.7493 21.112 10.0933 20.5971 9.57838C20.0822 9.06347 19.4261 8.71281 18.7119 8.57075C17.9977 8.42868 17.2574 8.5016 16.5847 8.78026C15.9119 9.05893 15.3369 9.53084 14.9323 10.1363C14.5278 10.7418 14.3118 11.4536 14.3118 12.1818C14.313 13.1579 14.7013 14.0937 15.3915 14.7839C16.0817 15.4741 17.0175 15.8624 17.9936 15.8636ZM17.9936 10.3182C18.3622 10.3182 18.7225 10.4275 19.029 10.6323C19.3355 10.837 19.5744 11.1281 19.7154 11.4686C19.8565 11.8092 19.8934 12.1839 19.8215 12.5454C19.7496 12.9069 19.5721 13.239 19.3114 13.4996C19.0508 13.7602 18.7187 13.9377 18.3572 14.0096C17.9957 14.0816 17.621 14.0446 17.2805 13.9036C16.9399 13.7625 16.6489 13.5237 16.4441 13.2172C16.2393 12.9107 16.13 12.5504 16.13 12.1818C16.1307 11.6878 16.3273 11.2142 16.6766 10.8648C17.026 10.5155 17.4996 10.3189 17.9936 10.3182ZM12.6655 22.9091C12.9066 22.9091 13.1378 22.8133 13.3083 22.6428C13.4788 22.4723 13.5745 22.2411 13.5745 22V21.4455C13.5757 20.5523 13.9311 19.696 14.5627 19.0645C15.1942 18.4329 16.0505 18.0776 16.9436 18.0764H19.0436C19.9368 18.0776 20.793 18.4329 21.4246 19.0645C22.0562 19.696 22.4115 20.5523 22.4127 21.4455V22C22.4127 22.2411 22.5085 22.4723 22.679 22.6428C22.8495 22.8133 23.0807 22.9091 23.3218 22.9091C23.5629 22.9091 23.7942 22.8133 23.9646 22.6428C24.1351 22.4723 24.2309 22.2411 24.2309 22V21.4455C24.2292 20.0702 23.6822 18.7518 22.7097 17.7794C21.7373 16.8069 20.4189 16.2599 19.0436 16.2582H16.9436C15.5684 16.2599 14.25 16.8069 13.2775 17.7794C12.3051 18.7518 11.758 20.0702 11.7564 21.4455V22C11.7564 22.2411 11.8521 22.4723 12.0226 22.6428C12.1931 22.8133 12.4243 22.9091 12.6655 22.9091ZM12.1591 29.5609H23.1909C23.432 29.5609 23.6632 29.4651 23.8337 29.2946C24.0042 29.1242 24.1 28.8929 24.1 28.6518C24.1 28.4107 24.0042 28.1795 23.8337 28.009C23.6632 27.8385 23.432 27.7427 23.1909 27.7427H12.1591C11.918 27.7427 11.6868 27.8385 11.5163 28.009C11.3458 28.1795 11.25 28.4107 11.25 28.6518C11.25 28.8929 11.3458 29.1242 11.5163 29.2946C11.6868 29.4651 11.918 29.5609 12.1591 29.5609ZM29.4318 32.53H12.1591C11.918 32.53 11.6868 32.6258 11.5163 32.7963C11.3458 32.9668 11.25 33.198 11.25 33.4391C11.25 33.6802 11.3458 33.9114 11.5163 34.0819C11.6868 34.2524 11.918 34.3482 12.1591 34.3482H29.4318C29.6729 34.3482 29.9042 34.2524 30.0746 34.0819C30.2451 33.9114 30.3409 33.6802 30.3409 33.4391C30.3409 33.198 30.2451 32.9668 30.0746 32.7963C29.9042 32.6258 29.6729 32.53 29.4318 32.53Z" fill="white"/>
</g>
</g>
</svg>
