<svg width="82" height="82" viewBox="0 0 82 82" fill="none" xmlns="http://www.w3.org/2000/svg">
<g id="right-arrow 1">
<rect x="0.976191" y="0.976191" width="80.0476" height="80.0476" rx="40.0238" stroke="white" stroke-width="1.95238"/>
<g id="Outline Color">
<g id="Color">
<path id="Vector" d="M30.0946 62.0226L29.9618 43.4087C29.9579 43.0669 29.8184 42.7407 29.574 42.5018C29.3296 42.2628 29.0003 42.1307 28.6585 42.1345L27.1892 42.145C23.3732 42.1722 21.0202 38.0217 23.0261 34.8012L33.2773 18.3432C36.4726 13.213 43.9695 13.1431 47.2603 18.2128L58.1734 35.0249C60.1063 38.0026 57.9674 41.925 54.3968 41.9505L51.5293 41.9709L51.6712 61.8687C51.6754 63.2361 51.1362 64.5492 50.1723 65.5191C49.2083 66.489 47.8986 67.0363 46.5312 67.0405L35.308 67.1205C33.9406 67.1358 32.6232 66.6073 31.6455 65.6513C30.6678 64.6952 30.11 63.39 30.0946 62.0226Z" fill="white"/>
<path id="Vector_2" d="M33.2769 18.3421C34.413 16.5175 36.415 15.8391 38.3603 15.8003C40.6964 15.7541 42.5854 16.7723 43.8631 18.6239C46.6421 22.6515 54.399 35.0511 54.399 35.0511C56.3319 38.0289 54.193 41.9513 50.6224 41.9767L49.4729 41.985C49.1311 41.986 48.8037 42.1228 48.5628 42.3652C48.3218 42.6076 48.1869 42.9358 48.1879 43.2776L48.3207 61.8918C48.3249 63.2592 47.7857 64.5723 46.8217 65.5422C45.8578 66.5121 44.548 67.0594 43.1806 67.0636L46.5308 67.0397C47.8982 67.0355 49.208 66.4882 50.1719 65.5183C51.1359 64.5484 51.6751 63.2353 51.6709 61.8679L51.5289 41.9699L54.3964 41.9494C57.9671 41.9239 60.1061 38.0015 58.173 35.0238L47.2599 18.2117C43.9691 13.1418 36.4723 13.2119 33.2769 18.3421Z" fill="#B953CD"/>
</g>
<g id="Outline">
<path id="Vector_3" d="M32.2513 18.3324L22.0002 34.7905C21.4789 35.6129 21.1914 36.5618 21.1685 37.5352C21.1457 38.5087 21.3883 39.47 21.8704 40.316C22.3473 41.1799 23.0503 41.8977 23.9042 42.3923C24.7581 42.887 25.7305 43.1398 26.7171 43.1236L28.1864 43.1131C28.3565 43.1107 28.5206 43.1758 28.6428 43.2943C28.7649 43.4127 28.8351 43.5747 28.838 43.7448L28.9708 62.359C28.9935 65.5471 31.6247 68.1223 34.8359 68.0993L46.0591 68.0193C49.2703 67.9964 51.8644 65.384 51.8417 62.1959L51.7043 42.9449L53.9247 42.9291C54.8554 42.9313 55.769 42.6794 56.567 42.2007C57.3651 41.722 58.0174 41.0345 58.4536 40.2124C58.8952 39.407 59.1087 38.4964 59.071 37.5787C59.0333 36.661 58.7458 35.7709 58.2395 35.0045L47.3266 18.1919C46.5054 16.9347 45.3811 15.9044 44.0572 15.1958C42.7333 14.4872 41.2523 14.1231 39.7508 14.137C38.2492 14.1509 36.7753 14.5425 35.4647 15.2755C34.1542 16.0086 33.0492 17.0596 32.2515 18.3318L32.2513 18.3324ZM50.4102 42.9542L50.5475 62.2051C50.5493 63.3425 50.1214 64.4386 49.3493 65.2738C48.5773 66.1091 47.5182 66.6218 46.3841 66.7092C47.0478 66.1653 47.5815 65.4799 47.9461 64.7031C48.3108 63.9264 48.4972 63.0779 48.4917 62.2199L48.3589 43.6063C48.3592 43.436 48.427 43.2728 48.5474 43.1524C48.6679 43.0321 48.8312 42.9644 49.0014 42.9643L50.4102 42.9542ZM47.0647 43.6155L47.1975 62.2291C47.1991 63.4245 46.7264 64.5717 45.8833 65.419C45.0401 66.2664 43.8953 66.7447 42.6999 66.749L34.827 66.8052C33.6316 66.8179 32.4801 66.3559 31.6249 65.5207C30.7697 64.6854 30.2808 63.5451 30.2653 62.3498L30.1325 43.7358C30.1268 43.2226 29.9177 42.7326 29.5512 42.3733C29.1847 42.014 28.6907 41.8147 28.1775 41.8191L26.7079 41.8296C25.9532 41.8424 25.2093 41.6494 24.556 41.2714C23.9027 40.8933 23.3647 40.3446 22.9997 39.6839C22.6325 39.0394 22.4478 38.3071 22.4653 37.5656C22.4828 36.824 22.7019 36.1013 23.0991 35.4748C23.2212 35.2839 33.3251 19.0477 33.4451 18.8696C34.6429 17.1064 36.7477 16.802 37.8966 16.7801C39.9624 16.7387 41.6768 17.6183 42.8544 19.3238C45.593 23.2935 53.2956 35.603 53.3729 35.7268C53.3749 35.73 53.3767 35.7331 53.3788 35.7361C53.7571 36.3083 53.972 36.973 54.0003 37.6583C54.0286 38.3437 53.8692 39.0238 53.5394 39.6253C53.2119 40.242 52.7223 40.7575 52.1234 41.1164C51.5245 41.4753 50.839 41.6639 50.1408 41.6619L48.9922 41.6701C48.4788 41.6731 47.9875 41.8795 47.6262 42.2442C47.2648 42.609 47.0629 43.1021 47.0647 43.6155ZM39.7622 15.4314C41.047 15.4139 42.3153 15.7225 43.4483 16.3286C44.5814 16.9346 45.5422 17.8181 46.2408 18.8965L57.154 35.7086C57.5322 36.281 57.7469 36.9457 57.7751 37.6311C57.8033 38.3166 57.6439 38.9967 57.314 39.5982C56.9866 40.2149 56.497 40.7304 55.8981 41.0894C55.2992 41.4483 54.6137 41.637 53.9155 41.635L53.5868 41.6373C54.028 41.2367 54.3975 40.7635 54.6791 40.2382C55.1202 39.4337 55.3336 38.5241 55.2963 37.6074C55.259 36.6906 54.9724 35.8013 54.4673 35.0353C54.2826 34.74 46.6551 22.5532 43.9192 18.5874C42.6462 16.7435 40.8579 15.692 38.7128 15.5117C39.0604 15.4614 39.411 15.4345 39.7622 15.4314Z" fill="#3F1551"/>
</g>
</g>
</g>
</svg>
