<svg width="43" height="43" viewBox="0 0 43 43" fill="none" xmlns="http://www.w3.org/2000/svg">
<g id="social" clip-path="url(#clip0_30_842)">
<g id="Group">
<path id="Vector" d="M26.125 42.01C25.8929 42.01 25.6704 41.9178 25.5063 41.7537C25.3422 41.5896 25.25 41.3671 25.25 41.135V34.625C25.25 33.0518 25.0488 31.9353 24.6148 31.1163C24.5524 30.9979 24.518 30.8668 24.5143 30.733C24.5105 30.5993 24.5375 30.4665 24.5931 30.3448C24.6487 30.2231 24.7314 30.1158 24.835 30.0311C24.9386 29.9464 25.0602 29.8866 25.1905 29.8563C30.3775 28.6593 34 24.8635 34 20.625C34 18.525 33.1373 16.5213 31.5063 14.829C31.3834 14.7019 31.3019 14.5406 31.2726 14.3663C31.2432 14.192 31.2673 14.0128 31.3418 13.8525C31.9928 12.449 31.8545 10.538 31.0828 9.39175C30.0625 9.79075 28.7378 10.6255 27.8768 11.6475C27.7616 11.7854 27.6066 11.8843 27.4329 11.9303C27.2593 11.9764 27.0756 11.9675 26.9072 11.9048C23.5751 10.7007 19.9266 10.7007 16.5945 11.9048C16.4262 11.9666 16.2429 11.9753 16.0695 11.9296C15.8961 11.8839 15.7409 11.7861 15.625 11.6493C14.764 10.6273 13.4392 9.7925 12.4172 9.3935C11.6455 10.5398 11.5073 12.4508 12.1583 13.8543C12.2328 14.0143 12.2569 14.1931 12.2276 14.3672C12.1982 14.5413 12.1167 14.7023 11.9938 14.829C10.3628 16.5213 9.5 18.5268 9.5 20.625C9.5 24.6623 12.7602 28.2988 17.613 29.6725C17.7965 29.7247 17.9579 29.8352 18.0729 29.9875C18.1879 30.1397 18.25 30.3252 18.25 30.516V31.1268C18.25 32.2223 17.8108 32.84 17.4415 33.1673C16.6505 33.862 15.6285 33.757 15.5165 33.7448H15.499C14.057 33.7448 12.972 32.9415 11.9238 32.1645C11.397 31.7743 10.8632 31.377 10.242 31.048C10.3767 31.23 10.5097 31.4173 10.6445 31.6045C11.957 33.4298 13.4428 35.5 15.6268 35.5H17.3768C17.6088 35.5 17.8314 35.5922 17.9955 35.7563C18.1596 35.9204 18.2518 36.1429 18.2518 36.375V41.135C18.2517 41.2659 18.2223 41.3952 18.1656 41.5132C18.109 41.6313 18.0266 41.7351 17.9245 41.817C17.8223 41.899 17.7031 41.957 17.5756 41.9868C17.4481 42.0165 17.3156 42.0173 17.1877 41.989C7.6625 39.875 0.75 31.2598 0.75 21.5C0.75 9.92025 10.1702 0.5 21.75 0.5C33.3298 0.5 42.75 9.92025 42.75 21.5C42.75 31.258 35.8375 39.875 26.314 41.989C26.252 42.0029 26.1886 42.0099 26.125 42.01ZM26.5765 31.2983C26.8635 32.203 27 33.288 27 34.625V40.0115C35.1743 37.691 41 30.0768 41 21.5C41 10.8863 32.3638 2.25 21.75 2.25C11.1362 2.25 2.5 10.8863 2.5 21.5C2.5 30.0768 8.32575 37.691 16.5 40.0115V37.25H15.625C12.545 37.25 10.7023 34.6863 9.22175 32.6248C8.3835 31.4575 7.5155 30.25 6.875 30.25C6.64294 30.25 6.42038 30.1578 6.25628 29.9937C6.09219 29.8296 6 29.6071 6 29.375C6 29.1429 6.09219 28.9204 6.25628 28.7563C6.42038 28.5922 6.64294 28.5 6.875 28.5C9.92 28.5 11.6088 29.7513 12.965 30.7575C13.903 31.4523 14.6415 32 15.625 32C15.723 32.0053 16.0852 32.0315 16.2882 31.8495C16.4545 31.699 16.4965 31.3998 16.5 31.1635C11.2395 29.4363 7.75 25.2695 7.75 20.6268C7.75 18.2398 8.646 15.9718 10.347 14.0363C9.59625 11.861 10.06 9.2045 11.5055 7.75725C11.6131 7.64814 11.7477 7.56958 11.8956 7.5296C12.0435 7.48963 12.1994 7.48968 12.3472 7.52975C13.5162 7.8395 15.2522 8.74775 16.549 10.069C19.9294 8.98229 23.5654 8.98229 26.9457 10.069C28.2425 8.74775 29.9785 7.8395 31.1475 7.52975C31.2954 7.48949 31.4513 7.48935 31.5992 7.52933C31.7472 7.56932 31.8818 7.64799 31.9892 7.75725C33.4365 9.2045 33.8985 11.861 33.1478 14.0345C34.854 15.9718 35.75 18.2398 35.75 20.625C35.75 25.399 32.0278 29.6725 26.5765 31.2983Z" fill="white"/>
</g>
</g>
<defs>
<clipPath id="clip0_30_842">
<rect width="42" height="42" fill="white" transform="translate(0.75 0.5)"/>
</clipPath>
</defs>
</svg>
