<svg width="42" height="43" viewBox="0 0 42 43" fill="none" xmlns="http://www.w3.org/2000/svg">
<g id="social (1) 1" clip-path="url(#clip0_30_833)">
<g id="Group">
<path id="Vector" d="M38.4062 42.1875H4.28125C2.44375 42.1875 1 40.7437 1 38.9062V4.78125C1 2.94375 2.44375 1.5 4.28125 1.5H38.4062C40.2437 1.5 41.6875 2.94375 41.6875 4.78125V38.9062C41.6875 40.7437 40.2437 42.1875 38.4062 42.1875ZM4.28125 2.8125C3.16562 2.8125 2.3125 3.66562 2.3125 4.78125V38.9062C2.3125 40.0219 3.16562 40.875 4.28125 40.875H38.4062C39.5219 40.875 40.375 40.0219 40.375 38.9062V4.78125C40.375 3.66562 39.5219 2.8125 38.4062 2.8125H4.28125ZM34.4688 35.625H29.8094C29.4156 35.625 29.1531 35.3625 29.1531 34.9688V25.9125C29.1531 23.4844 29.0219 22.6969 28.8906 22.4344C28.7594 21.975 28.4969 21.6469 28.1688 21.45C27.8406 21.1875 27.4469 21.1219 26.9875 21.1219C26.3312 21.1219 25.7406 21.3188 25.2812 21.6469C24.7562 22.0406 24.4281 22.5 24.2313 23.0906C24.1 23.55 23.9031 24.6 23.9031 26.9625V34.9688C23.9031 35.3625 23.6406 35.625 23.2469 35.625H17.6031C17.2094 35.625 16.9469 35.3625 16.9469 34.9688V16.8562C16.9469 16.4625 17.2094 16.2 17.6031 16.2H22.2625C22.6563 16.2 22.9188 16.4625 22.9188 16.8562V17.8406C24.4281 16.4625 26.2 15.8062 28.3 15.8062C29.4812 15.8062 30.5312 16.0031 31.5156 16.4625C32.5 16.8562 33.2875 17.4469 33.8125 18.1031C34.3375 18.7594 34.6656 19.5469 34.8625 20.3344C35.0594 21.1219 35.125 22.2375 35.125 23.6812V34.9688C35.125 35.3625 34.8625 35.625 34.4688 35.625ZM30.4656 34.3125H33.8125V23.7469C33.8125 22.4344 33.7469 21.3844 33.55 20.6625C33.4187 20.0063 33.0906 19.4156 32.6969 18.8906C32.3031 18.3656 31.7125 17.9719 30.925 17.6438C30.1375 17.3156 29.2188 17.1187 28.2344 17.1187C26.0031 17.1187 24.1656 18.0375 22.7219 19.9406C22.525 20.1375 22.2625 20.2687 22 20.1375C21.7375 20.0719 21.5406 19.8094 21.5406 19.5469V17.5125H18.1938V34.3125H22.525V26.9625C22.525 24.8625 22.6563 23.4844 22.9188 22.6969C23.1813 21.8437 23.7063 21.1219 24.4281 20.5969C25.15 20.0719 26.0031 19.8094 26.9219 19.8094C27.6438 19.8094 28.3 20.0062 28.8906 20.4C29.4156 20.7937 29.8094 21.3187 30.0719 22.0406C30.2031 22.4344 30.4 23.2875 30.4 25.9781V34.3125H30.4656ZM12.8781 35.625H8.21875C7.825 35.625 7.5625 35.3625 7.5625 34.9688V16.8562C7.5625 16.4625 7.825 16.2 8.21875 16.2H12.8781C13.2719 16.2 13.5344 16.4625 13.5344 16.8562V34.9688C13.5344 35.3625 13.2719 35.625 12.8781 35.625ZM8.875 34.3125H12.2219V17.5125H8.875V34.3125ZM10.5813 13.9031C8.94063 13.9031 7.5625 12.5906 7.5625 11.0156C7.5625 9.44062 8.94063 8.12813 10.5813 8.12813C12.2219 8.12813 13.6 9.44062 13.6 11.0156C13.6 12.5906 12.2219 13.9031 10.5813 13.9031ZM10.5813 9.375C9.6625 9.375 8.875 10.0969 8.875 10.95C8.875 11.8031 9.6625 12.525 10.5813 12.525C11.5 12.525 12.2875 11.8031 12.2875 10.95C12.2875 10.0969 11.5 9.375 10.5813 9.375Z" fill="white"/>
</g>
</g>
<defs>
<clipPath id="clip0_30_833">
<rect width="42" height="42" fill="white" transform="translate(0 0.5)"/>
</clipPath>
</defs>
</svg>
