<svg width="43" height="42" viewBox="0 0 43 42" fill="none" xmlns="http://www.w3.org/2000/svg">
<g id="typescript">
<g id="Group">
<g id="Group_2">
<path id="Vector" fill-rule="evenodd" clip-rule="evenodd" d="M3.125 3.5C3.125 3.26794 3.21719 3.04538 3.38128 2.88128C3.54538 2.71719 3.76794 2.625 4 2.625H28.5C28.615 2.6248 28.7289 2.64726 28.8352 2.6911C28.9415 2.73494 29.0381 2.7993 29.1195 2.8805L39.6195 13.3805C39.7007 13.4619 39.7651 13.5585 39.8089 13.6648C39.8527 13.7711 39.8752 13.885 39.875 14V38.5C39.875 38.7321 39.7828 38.9546 39.6187 39.1187C39.4546 39.2828 39.2321 39.375 39 39.375H4C3.76794 39.375 3.54538 39.2828 3.38128 39.1187C3.21719 38.9546 3.125 38.7321 3.125 38.5V3.5ZM4.875 4.375V37.625H38.125V14.3623L28.1378 4.375H4.875Z" fill="#2F3CFD"/>
<path id="Vector_2" fill-rule="evenodd" clip-rule="evenodd" d="M28.1658 2.69137C28.3256 2.62502 28.5015 2.60756 28.6713 2.6412C28.8411 2.67484 28.997 2.75808 29.1195 2.88037L39.6195 13.3804C39.7422 13.5027 39.8258 13.6588 39.8597 13.8287C39.8936 13.9987 39.8762 14.1749 39.8099 14.3349C39.7435 14.495 39.6311 14.6318 39.4869 14.7279C39.3428 14.824 39.1733 14.8752 39 14.8749H28.5C28.2679 14.8749 28.0454 14.7827 27.8813 14.6186C27.7172 14.4545 27.625 14.2319 27.625 13.9999V3.49987C27.625 3.32672 27.6764 3.15748 27.7727 3.01356C27.8689 2.86964 28.0057 2.75751 28.1658 2.69137ZM29.375 5.61387V13.1249H36.8878L29.375 5.61387ZM23.25 18.3749C23.25 18.1428 23.3422 17.9202 23.5063 17.7562C23.6704 17.5921 23.8929 17.4999 24.125 17.4999H33.75V19.2499H25V24.4999H33.75C33.9821 24.4999 34.2046 24.5921 34.3687 24.7562C34.5328 24.9202 34.625 25.1428 34.625 25.3749V32.3749C34.625 32.6069 34.5328 32.8295 34.3687 32.9936C34.2046 33.1577 33.9821 33.2499 33.75 33.2499H24.125V31.4999H32.875V26.2499H24.125C23.8929 26.2499 23.6704 26.1577 23.5063 25.9936C23.3422 25.8295 23.25 25.6069 23.25 25.3749V18.3749ZM12.75 19.2499H7.5V17.4999H19.75V19.2499H14.5V34.1249H12.75V19.2499Z" fill="#2F3CFD"/>
</g>
</g>
</g>
</svg>
